<svg xmlns="http://www.w3.org/2000/svg" width="364" height="24" viewBox="0 0 364 24"><defs><style>.a{fill:#fff;}</style></defs><path class="a" d="M468.267,22.892h-2.418V1.309h2.4V.52h-8.189c-.208.592-.046.844.584.814.611-.03,1.226-.007,1.861-.007V11.2h-9.224V1.327c.577,0,1.076-.011,1.58,0,.581.019,1.123.026.8-.8h-8.136c-.188.618.019.844.634.807.581-.037,1.165-.007,1.765-.007v21.62H447.44c.031.326.054.559.077.8h8.178v-.837h-2.43V12.359h9.262V22.933h-2.553c.019.333.035.566.046.807h8.247Z" transform="translate(-275.46 -0.32)"/><path class="a" d="M810.407,6.484A8.94,8.94,0,0,0,802.952.5,14.009,14.009,0,0,0,800.826.39c-2.78-.011-5.56,0-8.37,0v.885h2.4V22.878H792.44V23.6c3.5,0,6.967.118,10.419-.037a7.577,7.577,0,0,0,6.29-3.932A14.424,14.424,0,0,0,810.407,6.484Zm-3.064,11.3c-.5,3.251-2.738,5.057-6.167,5.061h-2.987V1.311a31.825,31.825,0,0,1,3.949.026c3.153.407,4.96,2.37,5.364,5.794A39.538,39.538,0,0,1,807.342,17.783Z" transform="translate(-487.865 -0.236)"/><path class="a" d="M108.145,1.35h2.726V22.938H108.11c.015.318.027.559.038.818h16.967c.138-2.155.277-4.3.411-6.42-.638-.185-.9-.07-1.007.526a14.789,14.789,0,0,1-.715,2.547,3.415,3.415,0,0,1-3.091,2.355c-1.8.126-3.61.115-5.413.159-.369.007-.738,0-1.084,0V12.316c3.007-.437,4.191.585,4.737,4.05h.715V12.49c0-1.425.015-2.854-.015-4.28,0-.222-.215-.441-.335-.659a2.32,2.32,0,0,0-.458.563c-.131.344-.15.726-.254,1.081-.235.785-.546,1.592-1.457,1.8a28.159,28.159,0,0,1-2.926.37V1.336c1.761,0,3.449-.044,5.137.011a4.047,4.047,0,0,1,4.156,3.1c.131.407.165.848.335,1.237.1.226.377.381.573.566l.161-.189V.51H108.148C108.145.769,108.145.984,108.145,1.35Z" transform="translate(-66.544 -0.314)"/><path class="a" d="M912.534,1.429c2.972-.292,5.379-.093,6.271,5.749h.638V.57H902.561c-.111,2.243-.223,4.42-.331,6.578.7.23.9,0,1.015-.589a27.091,27.091,0,0,1,.888-3.384,2.442,2.442,0,0,1,2.03-1.725,25.673,25.673,0,0,1,3.068-.026v21.56h-2.653c.035.326.058.563.081.789h8.551c-.012-.289-.023-.526-.038-.844h-2.634C912.534,15.722,912.534,8.6,912.534,1.429Z" transform="translate(-555.443 -0.351)"/><path class="a" d="M696.729,22.736c-.469.1-.923.237-1.388.3-1.3.167-1.857-.23-2.107-1.486a6.944,6.944,0,0,1-.15-1.19c-.019-1,.042-2-.012-2.994A5.769,5.769,0,0,0,689.1,11.9c-.55-.211-1.111-.4-1.638-.593a31.042,31.042,0,0,0,3.33-.915,4.728,4.728,0,0,0,3.126-4.825,4.507,4.507,0,0,0-3.1-4.469,10.077,10.077,0,0,0-3.268-.682C684.18.323,680.8.375,677.417.379a1.743,1.743,0,0,0-.377.093c.039.259.073.5.115.8h2.334V22.865h-2.38v.778h8.239c-.039-.3-.065-.537-.1-.838h-2.426V11.537c.807,0,1.549-.015,2.288,0,2.4.059,3.8,1.293,4.056,3.591.177,1.586.4,3.176.477,4.769a4.292,4.292,0,0,0,3.076,4.321h2.134c.419-.13.831-.285,1.257-.382C696.779,23.688,696.983,23.332,696.729,22.736Zm-13.91-11.985V1.268c1.469,0,2.891-.082,4.3.019a2.954,2.954,0,0,1,3.037,2.724,15.431,15.431,0,0,1-.131,3.9,3,3,0,0,1-2.9,2.59C685.725,10.655,684.3,10.67,682.819,10.751Z" transform="translate(-416.809 -0.222)"/><path class="a" d="M237.629,22.716c-.138.041-.273.082-.411.119-2.3.623-3.126.041-3.214-2.286-.012-.285,0-.571,0-.856-.008-.856.035-1.712-.035-2.561a5.6,5.6,0,0,0-3.606-5.077c-.669-.282-1.357-.519-2.134-.815.5-.082.915-.141,1.319-.215,2.215-.415,4.175-1.19,4.967-3.472,1.173-3.383-.669-6.4-4.41-6.941a47.181,47.181,0,0,0-5.936-.23c-2.038-.033-4.075-.007-6.152-.007v.878h2.4V22.875H217.94c.035.326.058.563.081.778H226.3c-.027-.3-.054-.534-.081-.826h-2.476V11.565c.946,0,1.842-.07,2.714.015a3.583,3.583,0,0,1,3.606,3.461c.2,1.586.411,3.176.481,4.769.092,2.112.911,3.676,3.072,4.414h2.134c.419-.13.834-.282,1.257-.385C237.641,23.687,237.933,23.383,237.629,22.716Zm-13.9-11.955V1.345c1.6,0,3.172-.1,4.714.03a2.7,2.7,0,0,1,2.6,2.516,17.181,17.181,0,0,1-.131,4.143,2.85,2.85,0,0,1-2.634,2.431C226.8,10.661,225.291,10.668,223.726,10.761Z" transform="translate(-134.171 -0.224)"/><path class="a" d="M11.853,11.69c-.219-.059-.438-.122-.842-.237.561-.167.927-.259,1.284-.385a5.352,5.352,0,0,0,3.71-3.506c1-3.329-1.073-6.5-4.917-6.868C7.42.342,3.7.519,0,.46v.859H2.453V22.894H0v.855c1.273,0,2.549.019,3.822,0,2.4-.044,4.806.026,7.186-.207,3.426-.341,5.683-2.57,5.9-5.513C17.125,15.011,15.21,12.608,11.853,11.69ZM5.748,1.326c1.626.022,3.237-.3,4.8.326a2.746,2.746,0,0,1,1.857,2.329,23.351,23.351,0,0,1-.038,4.665,2.6,2.6,0,0,1-2.576,2.325c-1.315.107-2.645.022-4.045.022Zm7.1,18.794c-.231,1.729-1.169,2.429-2.953,2.707a6.588,6.588,0,0,1-.977.063c-1.03.007-2.061,0-3.164,0V11.971a11.85,11.85,0,0,1,5.237.537,3.04,3.04,0,0,1,1.926,2.6A24.5,24.5,0,0,1,12.849,20.121Z" transform="translate(0 -0.283)"/><path class="a" d="M348.609,24.221q-4.55-8.277-9.1-16.55C338.5,5.84,337.5,4.006,336.386,1.986V22.824h2.365c.031.3.058.534.092.83h-6.017v-.808h2.426V1.275h-2.4c-.031-.33-.05-.563-.069-.8a1.366,1.366,0,0,1,.3-.089C334.922.378,336.759.4,338.6.359c.584-.015.746.311.957.7q4.141,7.565,8.3,15.123c.135.245.281.482.523.9V1.263h-2.391c-.023-.33-.038-.567-.058-.849h6.025V1.2h-2.407c-.031.278-.069.467-.069.66q-.006,11.006,0,22.016a3.374,3.374,0,0,0,.027.341Z" transform="translate(-204.871 -0.221)"/><path class="a" d="M579.585,22.612c-.092-.278-.185-.515-.254-.755q-1.286-4.355-2.568-8.706Q574.837,6.573,572.934,0h-1.426c-.073.185-.158.367-.219.555-2.176,7.007-4.375,14.006-6.509,21.027-.258.855-.638,1.167-1.523,1.037a9.294,9.294,0,0,0-1.326-.011v.815h6.29V22.59h-2.726c.734-2.455,1.423-4.807,2.161-7.147a.94.94,0,0,1,.7-.433c.884-.052,1.776-.03,2.664-.022.946.011,2.168-.3,2.764.144.631.478.684,1.678.954,2.57.488,1.6.95,3.214,1.457,4.929H573.56c.023.326.042.563.058.789h8.155v-.807Zm-11.473-8.721c.919-3.033,1.822-6.022,2.726-9.01.069,0,.138,0,.208-.007.842,2.977,1.684,5.955,2.549,9.018Z" transform="translate(-345.944)"/><path class="a" d="M468.267,22.886v.844H460.02c-.015-.241-.027-.474-.046-.807h2.553V12.349h-9.262V22.9h2.43v.837h-8.178c-.023-.237-.046-.474-.077-.8h2.476V1.317c-.6,0-1.184-.03-1.765.007-.611.037-.823-.189-.634-.807h8.136c.327.829-.215.822-.8.8-.5-.015-1,0-1.58,0v9.877H462.5V1.317c-.634,0-1.25-.022-1.861.007-.631.03-.792-.222-.584-.814h8.189V1.3h-2.4V22.882C466.606,22.886,467.394,22.886,468.267,22.886Z" transform="translate(-275.46 -0.314)"/><path class="a" d="M810.407,6.484A8.94,8.94,0,0,0,802.952.5,14.009,14.009,0,0,0,800.826.39c-2.78-.011-5.56,0-8.37,0v.885h2.4V22.878H792.44V23.6c3.5,0,6.967.118,10.419-.037a7.577,7.577,0,0,0,6.29-3.932A14.424,14.424,0,0,0,810.407,6.484Zm-3.064,11.3c-.5,3.251-2.738,5.057-6.167,5.061h-2.987V1.311a31.825,31.825,0,0,1,3.949.026c3.153.407,4.96,2.37,5.364,5.794A39.538,39.538,0,0,1,807.342,17.783Z" transform="translate(-487.865 -0.236)"/><path class="a" d="M108.138,1.35V.51h16.436V6.056l-.161.189c-.2-.185-.473-.341-.573-.566-.169-.389-.2-.829-.334-1.237a4.05,4.05,0,0,0-4.156-3.1c-1.684-.056-3.376-.011-5.137-.011V11.365a29.2,29.2,0,0,0,2.926-.37c.911-.207,1.223-1.011,1.457-1.8.1-.355.123-.737.254-1.081a2.251,2.251,0,0,1,.458-.563c.115.218.327.437.335.659.031,1.425.015,2.851.015,4.28v3.876h-.715c-.546-3.465-1.73-4.487-4.737-4.05V22.923c.342,0,.711.007,1.084,0,1.8-.044,3.614-.033,5.413-.159a3.406,3.406,0,0,0,3.091-2.355,14.453,14.453,0,0,0,.715-2.547c.108-.6.369-.711,1.007-.526q-.2,3.182-.411,6.42H108.138c-.012-.259-.023-.5-.038-.818h2.761V1.35Z" transform="translate(-66.538 -0.314)"/><path class="a" d="M912.528,1.416V22.91h2.634c.015.318.027.555.038.844h-8.551c-.023-.226-.046-.463-.081-.789h2.653V1.405a25.676,25.676,0,0,0-3.068.026,2.427,2.427,0,0,0-2.03,1.725,27.113,27.113,0,0,0-.888,3.384c-.115.589-.315.818-1.015.589.108-2.155.215-4.335.331-6.578h16.883V7.158h-.638C917.907,1.324,915.5,1.124,912.528,1.416Z" transform="translate(-555.437 -0.339)"/></svg>